<?xml version="1.0" standalone="no"?>
<!DOCTYPE svg PUBLIC "-//W3C//DTD SVG 20010904//EN"
 "http://www.w3.org/TR/2001/REC-SVG-20010904/DTD/svg10.dtd">
<svg version="1.0" xmlns="http://www.w3.org/2000/svg"
 width="256.000000pt" height="256.000000pt" viewBox="0 0 256.000000 256.000000"
 preserveAspectRatio="xMidYMid meet">
<metadata>
Created by potrace 1.14, written by Peter Selinger 2001-2017
</metadata>
<g transform="translate(0.000000,256.000000) scale(0.100000,-0.100000)"
fill="#000000" stroke="none">
<path d="M1332 1799 c-397 -397 -722 -724 -723 -728 0 -3 -1 -64 -2 -134 -2
-122 -1 -129 20 -142 12 -8 28 -15 34 -15 7 0 344 332 751 738 406 407 740
737 743 734 3 -3 5 -1 5 5 0 6 17 27 37 47 l38 36 -91 91 -90 90 -722 -722z"/>
<path d="M1155 2196 c-22 -13 -101 -58 -175 -101 -74 -42 -145 -84 -157 -91
-13 -8 -25 -13 -27 -12 -2 2 -12 -5 -22 -14 -11 -9 -50 -33 -89 -53 -38 -21
-88 -50 -110 -65 -22 -15 -65 -40 -95 -56 -30 -16 -58 -33 -62 -39 -5 -7 -8
-7 -8 0 0 6 -7 1 -15 -9 -8 -11 -15 -17 -15 -13 0 4 -22 -6 -48 -23 l-48 -29
0 -535 1 -535 55 -33 c30 -18 66 -39 80 -45 14 -7 34 -19 45 -25 84 -54 124
-76 129 -71 3 4 6 2 6 -4 0 -6 8 -14 18 -17 9 -4 35 -17 57 -31 22 -13 61 -36
87 -49 26 -14 49 -30 53 -36 4 -6 10 -8 14 -6 4 3 17 -4 29 -14 12 -11 24 -20
27 -20 3 0 76 -40 162 -90 86 -49 160 -90 163 -90 4 0 44 22 88 49 45 27 82
46 82 43 0 -4 4 -2 8 3 8 12 39 31 69 45 12 5 58 32 102 59 44 28 112 67 150
86 39 20 71 41 71 46 0 6 5 7 10 4 6 -3 10 -1 10 4 0 6 3 10 8 9 4 -1 52 24
107 57 55 33 106 60 114 62 8 1 17 6 20 11 3 4 24 19 46 31 l40 22 -1 222 c-1
122 -2 223 -3 225 -1 2 -57 -53 -125 -122 -88 -88 -123 -130 -120 -143 2 -10
1 -23 -3 -29 -7 -9 -122 -77 -314 -186 -13 -7 -26 -16 -29 -19 -3 -3 -20 -13
-37 -22 -18 -9 -48 -25 -65 -34 -18 -9 -35 -19 -38 -22 -3 -4 -16 -12 -30 -19
-14 -7 -43 -24 -65 -37 -102 -61 -90 -60 -153 -24 -31 18 -65 39 -74 47 -10 8
-18 11 -18 6 0 -5 -4 -4 -8 1 -9 12 -39 32 -70 45 -12 5 -48 26 -79 46 -32 20
-63 37 -70 38 -6 1 -20 9 -30 17 -21 16 -55 36 -98 57 -16 8 -40 24 -53 36
-13 12 -27 20 -30 20 -4 -1 -26 9 -50 23 l-42 25 0 383 0 382 62 40 c35 22 73
44 86 47 12 4 22 11 22 15 0 4 16 13 35 21 19 8 35 17 35 22 0 4 7 8 15 8 8 0
15 5 15 11 0 5 4 8 8 5 5 -3 19 4 30 15 12 11 22 17 22 15 0 -3 33 15 74 39
40 25 79 45 85 45 6 0 11 4 11 9 0 5 13 13 28 19 16 5 35 16 43 23 17 16 100
59 113 59 5 0 25 -12 44 -27 20 -15 32 -20 27 -12 -5 9 -1 7 12 -4 19 -17 22
-15 111 75 l92 93 -22 17 c-13 10 -38 23 -55 30 -18 7 -33 16 -33 20 0 4 -4 8
-10 8 -5 0 -43 20 -83 45 -41 25 -81 45 -88 45 -8 -1 -32 -11 -54 -24z"/>
<path d="M1752 1771 c-51 -49 -92 -91 -92 -93 0 -3 42 -29 93 -59 50 -29 94
-56 97 -59 3 -4 13 -9 22 -13 15 -5 17 -18 15 -82 -2 -41 0 -80 3 -85 3 -5 60
46 126 113 116 118 121 124 118 161 -2 21 -5 40 -6 41 -2 1 -52 30 -113 65
-60 34 -124 71 -140 81 l-31 18 -92 -88z"/>
<path d="M1636 1026 c-275 -276 -501 -507 -504 -514 -2 -6 14 -20 35 -31 40
-20 57 -17 113 18 8 5 49 29 90 52 41 24 84 49 95 56 11 7 36 20 55 30 19 10
37 21 38 26 2 4 8 7 13 7 5 0 28 12 52 27 23 15 44 28 47 28 25 3 109 80 364
334 l297 297 -87 87 c-48 48 -92 86 -98 86 -6 -1 -236 -227 -510 -503z"/>
<path d="M1448 1379 c-58 -60 -105 -109 -103 -109 1 0 -53 -54 -120 -120 -67
-66 -121 -120 -120 -120 2 0 -34 -35 -80 -77 -45 -43 -83 -81 -84 -84 -2 -8
-131 -137 -131 -130 0 11 -20 -24 -20 -35 0 -7 8 -14 18 -17 9 -4 44 -22 77
-42 33 -20 74 -43 92 -52 l32 -16 365 366 c201 201 366 367 366 369 0 8 -172
178 -178 177 -4 0 -55 -50 -114 -110z"/>
</g>
</svg>
